<svg class="logo-fullscreen" xmlns="http://www.w3.org/2000/svg" viewBox="0 0 293.07 55.45">
							<defs>
								<style>.cls-1{fill:#009fe3;}.cls-2{fill:#1d1d1b;}</style>
							</defs>
							<g id="pankl-logo">
								<path class="cls-1" d="M50.61,47.26H57c1.94,0,2,.89,1,2.22a4.57,4.57,0,0,1-2.64,1.81l0,0c.38.17.47.57-.11,1.43-1.06,1.57-1.39,2.07-1.36,2.47H50.93A5.41,5.41,0,0,1,51.67,54c.93-1.25.69-1.47,0-1.47H49.27l-2,2.65H44.62l6-8Zm0,3.52h2.55a2.07,2.07,0,0,0,1.65-.88c.39-.52.3-.86-.34-.86H51.92l-1.31,1.74Z"></path>
								<path class="cls-1" d="M70.23,47.26h3.24l-2.57,8H68.06l.5-1.29H65.09l-1.45,1.29H60.8l9.43-8Zm.11,2h0l-3.37,3h2.23l1.16-3Z"></path>
								<path class="cls-1" d="M88.51,52.15A9.59,9.59,0,0,1,81,55.45c-3.36,0-3.88-1.48-1.82-4.21A9.91,9.91,0,0,1,87.35,47c2.42,0,4,.56,2.51,3.3H86.92c.27-.56.6-1.52-.9-1.52a5.3,5.3,0,0,0-4,2.44c-1,1.31-1.35,2.43.36,2.43a4.55,4.55,0,0,0,3.23-1.52Z"></path>
								<polygon class="cls-1" points="99.52 47.26 102.16 47.26 96.18 55.21 93.53 55.21 99.52 47.26 99.52 47.26"></polygon>
								<polygon class="cls-1" points="109.91 47.26 112.96 47.26 112.89 52.24 112.92 52.24 116.67 47.26 119.22 47.26 113.24 55.21 110.31 55.21 110.29 50.19 110.27 50.19 106.48 55.21 103.92 55.21 109.91 47.26 109.91 47.26"></polygon>
								<path class="cls-1" d="M129.1,50.7h4.27L130,55.21h-1.23l.3-.83a8.4,8.4,0,0,1-4.24,1.07c-3.47,0-3.88-1.48-1.82-4.21A10.43,10.43,0,0,1,131.15,47c2.19,0,4.23.57,2.84,2.86h-3c.29-.61.22-1.15-1-1.15a5.74,5.74,0,0,0-4.26,2.52c-1,1.38-1.14,2.49.48,2.49a4.54,4.54,0,0,0,3.29-1.39h-1.62l1.24-1.65Z"></path>
								<path class="cls-1" d="M155.48,49.59c.33-.55.18-.92-1-.92a2.33,2.33,0,0,0-2,.78c-.2.26-.12.42.23.48.58.12,2.39.42,3.07.55,1.28.26,1.72.86.66,2.26-2,2.69-5.53,2.71-6.63,2.71-2.69,0-4.27-.48-2.76-2.69h3.14c-.39.6-.34,1,1,1a2.46,2.46,0,0,0,2-.83c.32-.43.09-.57-.72-.72l-2.35-.4c-1.45-.24-1.46-1.07-.57-2.25s2.54-2.52,6-2.52c2.88,0,4.09.69,2.84,2.57Z"></path>
								<polygon class="cls-1" points="165.65 52.7 166.22 47.26 169.29 47.26 168.53 50.63 172.86 47.26 175.93 47.26 168.3 52.7 166.41 55.21 163.76 55.21 165.65 52.7 165.65 52.7"></polygon>
								<path class="cls-1" d="M186.1,49.59c.33-.55.18-.92-1-.92a2.33,2.33,0,0,0-2,.78c-.2.26-.13.42.22.48.59.12,2.4.42,3.08.55,1.28.26,1.72.86.66,2.26-2,2.69-5.54,2.71-6.63,2.71-2.69,0-4.28-.48-2.76-2.69h3.13c-.38.6-.33,1,1,1a2.49,2.49,0,0,0,2-.83c.31-.43.09-.57-.72-.72l-2.35-.4c-1.45-.24-1.47-1.07-.58-2.25s2.55-2.52,6-2.52c2.89,0,4.1.69,2.85,2.57Z"></path>
								<polygon class="cls-1" points="197.34 47.26 205.82 47.26 204.48 49.05 201.57 49.05 196.92 55.21 194.27 55.21 198.92 49.05 196 49.05 197.34 47.26 197.34 47.26"></polygon>
								<polygon class="cls-1" points="213.39 47.26 221.34 47.26 220.05 48.98 214.74 48.98 213.66 50.41 218.64 50.41 217.4 52.06 212.42 52.06 211.34 53.5 216.65 53.5 215.35 55.21 207.4 55.21 213.39 47.26 213.39 47.26"></polygon>
								<polygon class="cls-1" points="228.56 47.26 232.43 47.26 230.29 52.51 230.31 52.51 236.08 47.26 239.95 47.26 233.96 55.21 231.47 55.21 235.95 49.27 235.93 49.27 229.36 55.21 227.18 55.21 229.56 49.27 229.54 49.27 225.06 55.21 222.57 55.21 228.56 47.26 228.56 47.26"></polygon>
								<path class="cls-1" d="M251.15,49.59c.34-.55.19-.92-1-.92a2.31,2.31,0,0,0-2,.78c-.2.26-.13.42.22.48.58.12,2.39.42,3.07.55,1.29.26,1.72.86.67,2.26-2,2.69-5.54,2.71-6.63,2.71-2.69,0-4.28-.48-2.77-2.69h3.14c-.39.6-.34,1,1,1a2.46,2.46,0,0,0,2-.83c.32-.43.1-.57-.72-.72l-2.35-.4c-1.45-.24-1.46-1.07-.57-2.25s2.55-2.52,6-2.52c2.88,0,4.1.69,2.85,2.57Z"></path>
								<polygon class="cls-2" points="223.22 24.92 235.14 35.31 266.04 35.31 293.07 0 276.3 0 250.22 34.06 236.58 22.02 260.94 13.7 237.18 13.7 229.92 16.16 242.3 0 225.5 0 198.47 35.31 215.27 35.31 223.22 24.92 223.22 24.92"></polygon>
								<polygon class="cls-2" points="223.22 24.92 235.14 35.31 266.04 35.31 293.07 0 276.3 0 250.22 34.06 236.58 22.02 260.94 13.7 237.18 13.7 229.92 16.16 242.3 0 225.5 0 198.47 35.31 215.27 35.31 223.22 24.92 223.22 24.92"></polygon>
								<path class="cls-2" d="M208.69,14c-.23-.18-.43-.23-1-.24H156.37l-16.53,21.6h17.91L168,22.05c-3.6-1.37-12.63-2.22-12.63-2.22h32.8a.59.59,0,0,1,.33.12.4.4,0,0,1,.1.12h0a.51.51,0,0,1,.09.16.64.64,0,0,1,0,.07.77.77,0,0,1,0,.15,1.11,1.11,0,0,1,0,.17s0,.08,0,.12a1.37,1.37,0,0,1-.18.33l-.18.23-10.72,14H194l11.92-15.57,2.79-3.65a1.5,1.5,0,0,0,0-2.14Z"></path>
								<path class="cls-2" d="M77.61,30.58l.37-.47C80.13,27.32,90.54,13.7,90.54,13.7H31.81L0,55.23H16.82L32.05,35.31H70.52c3.06,0,6.38-3.83,7.09-4.73ZM61,29.24l-36.56,0s10.82-.76,14.25-2.55l5.19-6.85H69.42s-5.92,7.72-6,7.81c-.47.58-1.37,1.61-2.4,1.61Z"></path>
								<path class="cls-2" d="M151.81,13.7H98.07c-2.32,0-4.87,2.73-5.42,3.37S80.51,32.91,80.51,32.91l0,0a1.48,1.48,0,0,0,.05,2.12c.33.25.56.26,2,.25H107a10.26,10.26,0,0,0,1.75-.27l.12,0c3.11-.84,8.07-2.58,11.55-5.79H89.7A72.66,72.66,0,0,0,101,27.56c1.79-2.34,4.84-6.32,4.9-6.41s1.13-1.32,2-1.32h22.39L120.23,33a1.46,1.46,0,0,0,.09,2.07,1.43,1.43,0,0,0,1,.24h14L151.81,13.7Z"></path>
							</g>
						</svg>